<svg width="30" height="30" viewBox="0 0 26 26" fill="none" xmlns="http://www.w3.org/2000/svg">
<path d="M10.3779 4.91508C10.3779 5.58876 10.644 6.23484 11.1177 6.71119C11.5913 7.18755 12.2338 7.45517 12.9036 7.45517C13.5735 7.45517 14.2159 7.18755 14.6896 6.71119C15.1632 6.23484 15.4293 5.58876 15.4293 4.91508C15.4293 4.24141 15.1632 3.59533 14.6896 3.11897C14.2159 2.64262 13.5735 2.375 12.9036 2.375C12.2338 2.375 11.5913 2.64262 11.1177 3.11897C10.644 3.59533 10.3779 4.24141 10.3779 4.91508Z" stroke="#393DA3" stroke-width="1.5"/>
<path d="M16.4299 16.5206V12.5555C18.0136 12.4665 19.7123 12.3996 21.3049 12.0575C22.1937 11.8666 22.6264 10.9073 22.3074 10.0514C21.9882 9.19557 21.0379 8.76749 20.1484 8.95443C17.81 9.44571 15.1454 9.34218 12.9036 9.34218C10.6619 9.34218 7.9972 9.44575 5.65893 8.95447C4.76927 8.76755 3.819 9.19562 3.49988 10.0514C3.18075 10.9074 3.61346 11.8668 4.5023 12.0575C6.09481 12.3996 7.79335 12.4665 9.37705 12.5555V16.5206C9.37705 16.63 9.38629 16.7373 9.40404 16.8416L8.27831 22.1376C8.06445 23.1438 8.82719 24.0922 9.85025 24.0922C10.6093 24.0922 11.2647 23.5583 11.4226 22.8117L12.2386 18.951C12.305 18.6368 12.5824 18.4119 12.9036 18.4119V18.4119C13.2247 18.4119 13.5021 18.6368 13.5685 18.951L14.3845 22.8117C14.5423 23.5583 15.1978 24.0922 15.9568 24.0922C16.9798 24.0922 17.7426 23.1438 17.5287 22.1376L16.403 16.8413C16.4206 16.737 16.4299 16.6298 16.4299 16.5206Z" stroke="#393DA3" stroke-width="1.5" stroke-linecap="round" stroke-linejoin="round"/>
</svg>
